<svg width="24" height="24" viewBox="0 0 24 24" fill="none" xmlns="http://www.w3.org/2000/svg">
<path fill-rule="evenodd" clip-rule="evenodd" d="M7.24992 7.24976V7.12988C7.24992 4.96214 8.71754 3.0694 10.817 2.52954C11.593 2.33 12.4069 2.33 13.1829 2.52954C15.2823 3.0694 16.7499 4.96214 16.7499 7.12988V7.24976H18.251C18.8223 7.24976 19.3072 7.66874 19.39 8.23398L19.6087 9.72644C20.0392 12.6649 20.0392 15.6504 19.6087 18.5889C19.4007 20.0079 18.2565 21.1049 16.8299 21.2529L16.201 21.3181C13.4078 21.6078 10.5921 21.6078 7.79879 21.3181L7.16992 21.2529C5.74338 21.1049 4.59909 20.0079 4.39118 18.5889C3.96063 15.6504 3.96063 12.6649 4.39118 9.72643L4.60985 8.23398C4.69267 7.66874 5.17752 7.24976 5.7488 7.24976H7.24992ZM11.1905 3.98228C11.7215 3.84575 12.2784 3.84575 12.8093 3.98228C14.2458 4.35166 15.2499 5.64669 15.2499 7.12988V7.24976H8.74992V7.12988C8.74992 5.64669 9.75408 4.35166 11.1905 3.98228ZM7.24992 8.74975V10.9998C7.24992 11.414 7.58571 11.7498 7.99992 11.7498C8.41414 11.7498 8.74992 11.414 8.74992 10.9998V8.74975H15.2499V10.9998C15.2499 11.414 15.5857 11.7498 15.9999 11.7498C16.4141 11.7498 16.7499 11.414 16.7499 10.9998V8.74975H17.9495L18.1245 9.94389C18.5339 12.7381 18.5339 15.5772 18.1245 18.3714C18.0161 19.1115 17.4192 19.6837 16.6752 19.7609L16.0463 19.8261C13.3559 20.1051 10.6439 20.1051 7.95352 19.8261L7.32465 19.7609C6.5806 19.6837 5.98377 19.1115 5.87533 18.3714C5.46591 15.5772 5.46591 12.7381 5.87533 9.94389L6.05029 8.74975H7.24992Z" fill="black"/>
</svg>
